<svg xmlns="http://www.w3.org/2000/svg" version="1.1" xmlns:xlink="http://www.w3.org/1999/xlink" xmlns:svgjs="http://svgjs.dev/svgjs" width="1000" height="199" viewBox="0 0 1000 199"><g transform="matrix(1,0,0,1,-0.6060606060606233,-0.11937229299326191)"><svg viewBox="0 0 396 79" data-background-color="#ffffff" preserveAspectRatio="xMidYMid meet" height="199" width="1000" xmlns="http://www.w3.org/2000/svg" xmlns:xlink="http://www.w3.org/1999/xlink"><g id="tight-bounds" transform="matrix(1,0,0,1,0.2400000000000091,0.04738900073601826)"><svg viewBox="0 0 395.52 78.90522199852794" height="78.90522199852794" width="395.52"><g><svg viewBox="0 0 543.8799984945657 108.50265984469242" height="78.90522199852794" width="395.52"><g><rect width="6.480335095681429" height="108.50265984469242" x="124.91543539971823" y="0" fill="#010c80" opacity="1" stroke-width="0" stroke="transparent" fill-opacity="1" class="rect-r$-0" data-fill-palette-color="primary" rx="1%" id="r$-0" data-palette-color="#010c80"></rect></g><g transform="matrix(1,0,0,1,148.3599984945657,0.2699071140415157)"><svg viewBox="0 0 395.52 107.96284561660939" height="107.96284561660939" width="395.52"><g id="textblocktransform"><svg viewBox="0 0 395.52 107.96284561660939" height="107.96284561660939" width="395.52" id="textblock"><g><svg viewBox="0 0 395.52 71.85918093819805" height="71.85918093819805" width="395.52"><g transform="matrix(1,0,0,1,0,0)"><svg width="395.52" viewBox="3.55 -36 201.42999999999998 36.6" height="71.85918093819805" data-palette-color="#010c80"><path d="M24.75 0L3.55 0 3.55-35 8.85-35 8.85-4.2 24.75-4.2 24.75 0ZM33.25-29.5L33.25-29.5Q31.75-29.5 30.77-30.43 29.8-31.35 29.8-32.75L29.8-32.75Q29.8-34.15 30.77-35.08 31.75-36 33.25-36L33.25-36Q34.75-36 35.72-35.08 36.7-34.15 36.7-32.75L36.7-32.75Q36.7-31.35 35.72-30.43 34.75-29.5 33.25-29.5ZM35.9 0L30.6 0 30.6-24.8 35.9-24.8 35.9 0ZM48.2 0L42.9 0 42.9-24.8 47.59-24.8 48-20.45Q49.15-22.75 51.37-24.08 53.59-25.4 56.5-25.4L56.5-25.4Q61-25.4 63.57-22.6 66.15-19.8 66.15-14.25L66.15-14.25 66.15 0 60.9 0 60.9-13.7Q60.9-20.9 55-20.9L55-20.9Q52.05-20.9 50.12-18.8 48.2-16.7 48.2-12.8L48.2-12.8 48.2 0ZM77.69 0L72.39 0 72.39-36 77.69-36 77.69-14.55 87.19-24.8 93.54-24.8 82.99-13.55 95.09 0 88.39 0 77.69-12.7 77.69 0ZM121.64 0L99.39 0 99.39-35 121.64-35 121.64-30.7 104.69-30.7 104.69-19.8 120.14-19.8 120.14-15.6 104.69-15.6 104.69-4.3 121.64-4.3 121.64 0ZM136.14 0.6L136.14 0.6Q132.99 0.6 130.94-0.45 128.89-1.5 127.89-3.23 126.89-4.95 126.89-7L126.89-7Q126.89-10.6 129.69-12.7 132.49-14.8 137.69-14.8L137.69-14.8 144.19-14.8 144.19-15.25Q144.19-18.15 142.61-19.6 141.04-21.05 138.54-21.05L138.54-21.05Q136.34-21.05 134.71-19.98 133.09-18.9 132.74-16.8L132.74-16.8 127.44-16.8Q127.69-19.5 129.26-21.43 130.84-23.35 133.26-24.38 135.69-25.4 138.59-25.4L138.59-25.4Q143.79-25.4 146.64-22.68 149.49-19.95 149.49-15.25L149.49-15.25 149.49 0 144.89 0 144.44-4.25Q143.39-2.2 141.39-0.8 139.39 0.6 136.14 0.6ZM137.19-3.7L137.19-3.7Q139.34-3.7 140.81-4.73 142.29-5.75 143.11-7.45 143.94-9.15 144.14-11.2L144.14-11.2 138.24-11.2Q135.09-11.2 133.76-10.1 132.44-9 132.44-7.35L132.44-7.35Q132.44-5.65 133.71-4.67 134.99-3.7 137.19-3.7ZM165.59 0.6L165.59 0.6Q160.89 0.6 157.84-1.7 154.78-4 154.34-7.8L154.34-7.8 159.69-7.8Q160.09-6.1 161.59-4.88 163.09-3.65 165.53-3.65L165.53-3.65Q167.94-3.65 169.03-4.65 170.14-5.65 170.14-6.95L170.14-6.95Q170.14-8.85 168.61-9.53 167.09-10.2 164.39-10.75L164.39-10.75Q162.28-11.2 160.21-11.95 158.14-12.7 156.76-14.08 155.39-15.45 155.39-17.8L155.39-17.8Q155.39-21.05 157.89-23.23 160.39-25.4 164.89-25.4L164.89-25.4Q169.03-25.4 171.61-23.4 174.19-21.4 174.64-17.75L174.64-17.75 169.53-17.75Q169.28-19.35 168.06-20.25 166.84-21.15 164.78-21.15L164.78-21.15Q162.78-21.15 161.69-20.33 160.59-19.5 160.59-18.2L160.59-18.2Q160.59-16.9 162.11-16.15 163.64-15.4 166.14-14.8L166.14-14.8Q168.64-14.25 170.76-13.53 172.89-12.8 174.19-11.4 175.49-10 175.49-7.3L175.49-7.3Q175.54-3.9 172.86-1.65 170.19 0.6 165.59 0.6ZM192.88 0.6L192.88 0.6Q189.23 0.6 186.41-1.03 183.58-2.65 181.98-5.55 180.38-8.45 180.38-12.3L180.38-12.3Q180.38-16.2 181.96-19.15 183.53-22.1 186.36-23.75 189.18-25.4 192.93-25.4L192.93-25.4Q196.58-25.4 199.28-23.78 201.98-22.15 203.48-19.45 204.98-16.75 204.98-13.5L204.98-13.5Q204.98-13 204.96-12.43 204.93-11.85 204.88-11.15L204.88-11.15 185.58-11.15Q185.83-7.55 187.96-5.68 190.08-3.8 192.88-3.8L192.88-3.8Q195.13-3.8 196.66-4.83 198.18-5.85 198.93-7.6L198.93-7.6 204.23-7.6Q203.23-4.1 200.26-1.75 197.28 0.6 192.88 0.6ZM192.88-21.05L192.88-21.05Q190.23-21.05 188.18-19.48 186.13-17.9 185.68-14.75L185.68-14.75 199.68-14.75Q199.53-17.65 197.63-19.35 195.73-21.05 192.88-21.05Z" opacity="1" transform="matrix(1,0,0,1,0,0)" fill="#010c80" class="wordmark-text-0" data-fill-palette-color="primary" id="text-0"></path></svg></g></svg></g><g transform="matrix(1,0,0,1,0,88.82340893736409)"><svg viewBox="0 0 232.209792 19.139436679245286" height="19.139436679245286" width="232.209792"><g transform="matrix(1,0,0,1,0,0)"><svg width="232.209792" viewBox="1.9 -36.55 553.78 45.65" height="19.139436679245286" data-palette-color="#0074d9"><path d="M13.5 0.6Q8.4 0.6 5.15-1.98 1.9-4.55 1.9-9.8L1.9-9.8 1.95-10.85 7.15-10.85 7.1-9.85Q7.1-7 8.85-5.45 10.6-3.9 13.5-3.9L13.5-3.9Q16.7-3.9 18.38-5.28 20.05-6.65 20.05-9.1L20.05-9.1Q20.05-10.9 19.07-12.05 18.1-13.2 16.63-13.88 15.15-14.55 12.6-15.35L12.6-15.35Q9.4-16.4 7.4-17.4 5.4-18.4 4-20.38 2.6-22.35 2.6-25.55L2.6-25.55Q2.6-30.1 5.73-32.5 8.85-34.9 13.65-34.9L13.65-34.9Q18.45-34.9 21.5-32.45 24.55-30 24.55-25.1L24.55-25.1 24.55-24.5 19.35-24.5 19.35-25.15Q19.35-27.6 17.78-29 16.2-30.4 13.7-30.4L13.7-30.4Q11.05-30.4 9.45-29.25 7.85-28.1 7.85-25.95L7.85-25.95Q7.85-24.35 8.8-23.28 9.75-22.2 11.2-21.55 12.65-20.9 15.1-20.15L15.1-20.15Q18.35-19.1 20.38-18.1 22.4-17.1 23.85-15.15 25.3-13.2 25.3-10.05L25.3-10.05Q25.3-4.5 22.13-1.95 18.95 0.6 13.5 0.6L13.5 0.6ZM30.7 0L30.7-26.3 35.4-26.3 35.4 0 30.7 0ZM30.6-31.1L30.6-36.15 35.4-36.15 35.4-31.1 30.6-31.1ZM41.65 0L41.65-26.3 45.35-26.3 45.95-23.2 46.25-23.2Q47.25-25 48.8-25.95 50.35-26.9 52.3-26.9L52.3-26.9Q56.55-26.9 57.95-23.1L57.95-23.1Q58.95-24.85 60.7-25.88 62.45-26.9 64.45-26.9L64.45-26.9Q70.75-26.9 70.75-18.8L70.75-18.8 70.75 0 66.05 0 66.05-18.05Q66.05-20.6 65.22-21.65 64.4-22.7 62.8-22.7L62.8-22.7Q61-22.7 59.77-20.93 58.55-19.15 58.55-16.2L58.55-16.2 58.55 0 53.9 0 53.9-18.05Q53.9-20.6 53.05-21.65 52.2-22.7 50.6-22.7L50.6-22.7Q48.8-22.7 47.57-20.9 46.35-19.1 46.35-16.1L46.35-16.1 46.35 0 41.65 0ZM76.54 8.65L76.54-26.3 80.24-26.3 80.84-23.2 81.09-23.2Q82.04-25 83.54-25.95 85.04-26.9 86.89-26.9L86.89-26.9Q90.79-26.9 92.97-23.5 95.14-20.1 95.14-13.1L95.14-13.1Q95.14-6.25 92.94-2.83 90.74 0.6 87.19 0.6L87.19 0.6Q85.24 0.6 83.72-0.23 82.19-1.05 81.49-2.45L81.49-2.45 81.24-2.45 81.24 8.65 76.54 8.65ZM85.74-3.6Q88.04-3.6 89.14-5.68 90.24-7.75 90.24-12.2L90.24-12.2 90.24-14.1Q90.24-18.55 89.14-20.63 88.04-22.7 85.74-22.7L85.74-22.7Q81.24-22.7 81.24-14.1L81.24-14.1 81.24-12.25Q81.24-3.6 85.74-3.6L85.74-3.6ZM99.69 0L99.69-36.15 104.39-36.15 104.39 0 99.69 0ZM110.34 0L110.34-26.3 115.04-26.3 115.04 0 110.34 0ZM110.24-31.1L110.24-36.15 115.04-36.15 115.04-31.1 110.24-31.1ZM121.24 0L121.24-22.2 118.84-22.2 118.84-26.3 121.24-26.3 121.24-30.2Q121.24-32.9 122.54-34.73 123.84-36.55 126.79-36.55L126.79-36.55Q127.69-36.55 128.71-36.38 129.74-36.2 130.49-35.95L130.49-35.95 130.49-32.6 128.24-32.6Q125.94-32.6 125.94-30.25L125.94-30.25 125.94-26.3 130.49-26.3 130.49-22.2 125.94-22.2 125.94 0 121.24 0ZM135.73 9.1Q133.68 9.1 132.48 8.7L132.48 8.7 132.48 5.3 134.33 5.3Q137.98 5.3 139.18 0L139.18 0 130.88-26.3 135.98-26.3 140.28-11.65Q140.68-10.3 141.13-8.25L141.13-8.25Q141.58-6.45 141.63-6.3L141.63-6.3 141.83-6.3Q141.93-6.7 142.13-7.8L142.13-7.8Q142.73-10.65 143.03-11.7L143.03-11.7 146.58-26.3 151.33-26.3 144.48-1.35Q143.13 3.55 141.08 6.33 139.03 9.1 135.73 9.1L135.73 9.1ZM173.63 0L173.63-13.8 162.68-34.3 168.13-34.3 176.33-18.65 176.53-18.65 184.58-34.3 189.53-34.3 178.63-13.8 178.63 0 173.63 0ZM198.38 0.6Q193.53 0.6 191.08-2.78 188.63-6.15 188.63-13.15L188.63-13.15Q188.63-20.15 191.08-23.53 193.53-26.9 198.38-26.9L198.38-26.9Q203.28-26.9 205.7-23.53 208.13-20.15 208.13-13.15L208.13-13.15Q208.13-6.15 205.7-2.78 203.28 0.6 198.38 0.6L198.38 0.6ZM198.38-3.5Q203.23-3.5 203.23-12.2L203.23-12.2 203.23-14.1Q203.23-22.8 198.38-22.8L198.38-22.8Q195.93-22.8 194.75-20.63 193.58-18.45 193.58-14.1L193.58-14.1 193.58-12.2Q193.58-7.85 194.75-5.68 195.93-3.5 198.38-3.5L198.38-3.5ZM219.72 0.6Q213.02 0.6 213.02-7.5L213.02-7.5 213.02-26.3 217.72-26.3 217.72-8.25Q217.72-5.7 218.65-4.65 219.57-3.6 221.37-3.6L221.37-3.6Q223.32-3.6 224.67-5.43 226.02-7.25 226.02-10.15L226.02-10.15 226.02-26.3 230.72-26.3 230.72 0 227.02 0 226.42-3.1 226.12-3.1Q225.07-1.3 223.42-0.35 221.77 0.6 219.72 0.6L219.72 0.6ZM236.52 0L236.52-26.3 240.22-26.3 240.82-22.7 241.12-22.7Q242.52-26.9 245.62-26.9L245.62-26.9Q246.82-26.9 247.72-26.5L247.72-26.5 247.72-21.75 246.12-21.75Q243.97-21.75 242.6-20.3 241.22-18.85 241.22-15.6L241.22-15.6 241.22 0 236.52 0ZM274.22 0.6Q268.77 0.6 265.77-2.38 262.77-5.35 262.77-11L262.77-11 262.77-34.3 267.81-34.3 267.81-10.9Q267.81-7.5 269.49-5.7 271.17-3.9 274.22-3.9L274.22-3.9Q277.27-3.9 278.97-5.73 280.67-7.55 280.67-10.9L280.67-10.9 280.67-34.3 285.67-34.3 285.67-11Q285.67-5.35 282.67-2.38 279.67 0.6 274.22 0.6L274.22 0.6ZM292.36 0L292.36-34.3 306.31-34.3Q311.31-34.3 313.99-31.68 316.66-29.05 316.66-24.7L316.66-24.7Q316.66-21.55 315.06-19.2 313.46-16.85 310.66-15.85L310.66-15.85 317.46 0 311.91 0 305.76-14.9 297.36-14.9 297.36 0 292.36 0ZM297.36-19.4L305.96-19.4Q308.46-19.4 309.89-20.85 311.31-22.3 311.31-24.7L311.31-24.7Q311.31-27.05 309.96-28.4 308.61-29.75 306.01-29.75L306.01-29.75 297.36-29.75 297.36-19.4ZM321.96 0L321.96-34.3 326.96-34.3 326.96-4.65 341.16-4.65 341.16 0 321.96 0ZM352.56 0.6Q348.26 0.6 346.01-1.65 343.76-3.9 343.76-7.3L343.76-7.3Q343.76-7.85 343.78-8.03 343.81-8.2 343.81-8.25L343.81-8.25 348.66-8.25 348.66-7.8Q348.71-5.55 349.83-4.48 350.96-3.4 352.76-3.4L352.76-3.4Q354.36-3.4 355.46-4.33 356.56-5.25 356.56-7L356.56-7Q356.56-8.3 355.88-9.13 355.21-9.95 354.21-10.43 353.21-10.9 351.46-11.5L351.46-11.5Q349.16-12.25 347.73-12.98 346.31-13.7 345.31-15.23 344.31-16.75 344.31-19.25L344.31-19.25Q344.31-22.85 346.66-24.88 349.01-26.9 352.86-26.9L352.86-26.9Q356.51-26.9 358.68-24.88 360.86-22.85 360.86-19.7L360.86-19.7 360.81-18.7 355.96-18.7 355.96-19.05Q355.96-20.75 355.13-21.83 354.31-22.9 352.56-22.9L352.56-22.9Q350.76-22.9 349.93-21.9 349.11-20.9 349.11-19.6L349.11-19.6Q349.11-18 350.28-17.23 351.46-16.45 353.91-15.7L353.91-15.7Q356.31-14.95 357.78-14.2 359.26-13.45 360.33-11.88 361.41-10.3 361.41-7.65L361.41-7.65Q361.41-3.45 359.01-1.43 356.61 0.6 352.56 0.6L352.56 0.6ZM381.3 0L374.8-26.3 379.75-26.3 382.8-12.75Q383.35-10.3 383.85-5.9L383.85-5.9 384.05-5.9Q384.45-9.85 384.95-12.75L384.95-12.75 387.5-26.3 392.65-26.3 395.2-12.75Q395.65-10.25 396.1-5.9L396.1-5.9 396.3-5.9Q396.85-9.9 397.4-12.75L397.4-12.75 400.4-26.3 405-26.3 398.5 0 393.5 0 390.8-14.25Q390.3-16.75 390-20.4L390-20.4 389.75-20.4Q389.5-16.85 389-14.25L389-14.25 386.35 0 381.3 0ZM408.45 0L408.45-26.3 413.15-26.3 413.15 0 408.45 0ZM408.35-31.1L408.35-36.15 413.15-36.15 413.15-31.1 408.35-31.1ZM424.65 0.55Q421.9 0.55 420.7-1.3 419.5-3.15 419.5-5.85L419.5-5.85 419.5-22.2 417.1-22.2 417.1-26.3 419.5-26.3 420.4-33.65 424.2-33.65 424.2-26.3 427.85-26.3 427.85-22.2 424.2-22.2 424.2-5.8Q424.2-4.7 424.77-4.1 425.35-3.5 426.45-3.5L426.45-3.5 427.85-3.5 427.85-0.15Q427.3 0.15 426.37 0.35 425.45 0.55 424.65 0.55L424.65 0.55ZM431.5 0L431.5-36.15 436.2-36.15 436.2-23.55 436.5-23.55Q438.55-26.9 442.55-26.9L442.55-26.9Q449.2-26.9 449.2-18.8L449.2-18.8 449.2 0 444.5 0 444.5-18.05Q444.5-20.6 443.57-21.65 442.65-22.7 440.85-22.7L440.85-22.7Q438.9-22.7 437.55-20.88 436.2-19.05 436.2-16.1L436.2-16.1 436.2 0 431.5 0ZM466.84 0L466.84-34.3 488.19-34.3 488.19-29.75 471.84-29.75 471.84-19.8 485.99-19.8 485.99-15.3 471.84-15.3 471.84-4.55 488.49-4.55 488.49 0 466.84 0ZM499.04 0.6Q496.44 0.6 494.34-1.03 492.24-2.65 492.24-6.8L492.24-6.8Q492.24-11.85 495.66-13.8 499.09-15.75 505.44-15.75L505.44-15.75 505.44-18.9Q505.44-20.8 504.64-21.83 503.84-22.85 501.74-22.85L501.74-22.85Q499.74-22.85 498.86-21.78 497.99-20.7 497.99-19.15L497.99-19.15 497.99-18.5 493.34-18.5Q493.29-18.8 493.29-19.6L493.29-19.6Q493.29-23.05 495.64-24.98 497.99-26.9 501.89-26.9L501.89-26.9Q505.99-26.9 508.06-24.95 510.14-23 510.14-19.4L510.14-19.4 510.14-5.25Q510.14-4.4 510.54-3.95 510.94-3.5 511.54-3.5L511.54-3.5 513.04-3.5 513.04-0.2Q511.94 0.45 510.09 0.45L510.09 0.45Q508.44 0.45 507.29-0.43 506.14-1.3 505.74-2.85L505.74-2.85 505.49-2.85Q503.24 0.6 499.04 0.6L499.04 0.6ZM500.49-3.5Q502.54-3.5 503.99-5.2 505.44-6.9 505.44-9.75L505.44-9.75 505.44-11.85Q501.44-11.85 499.26-10.85 497.09-9.85 497.09-7.15L497.09-7.15Q497.09-5.2 497.91-4.35 498.74-3.5 500.49-3.5L500.49-3.5ZM524.09 0.6Q519.78 0.6 517.53-1.65 515.28-3.9 515.28-7.3L515.28-7.3Q515.28-7.85 515.31-8.03 515.34-8.2 515.34-8.25L515.34-8.25 520.18-8.25 520.18-7.8Q520.24-5.55 521.36-4.48 522.49-3.4 524.28-3.4L524.28-3.4Q525.88-3.4 526.99-4.33 528.09-5.25 528.09-7L528.09-7Q528.09-8.3 527.41-9.13 526.74-9.95 525.74-10.43 524.74-10.9 522.99-11.5L522.99-11.5Q520.68-12.25 519.26-12.98 517.84-13.7 516.84-15.23 515.84-16.75 515.84-19.25L515.84-19.25Q515.84-22.85 518.18-24.88 520.53-26.9 524.38-26.9L524.38-26.9Q528.03-26.9 530.21-24.88 532.38-22.85 532.38-19.7L532.38-19.7 532.34-18.7 527.49-18.7 527.49-19.05Q527.49-20.75 526.66-21.83 525.84-22.9 524.09-22.9L524.09-22.9Q522.28-22.9 521.46-21.9 520.63-20.9 520.63-19.6L520.63-19.6Q520.63-18 521.81-17.23 522.99-16.45 525.43-15.7L525.43-15.7Q527.84-14.95 529.31-14.2 530.78-13.45 531.86-11.88 532.93-10.3 532.93-7.65L532.93-7.65Q532.93-3.45 530.53-1.43 528.13 0.6 524.09 0.6L524.09 0.6ZM546.88 0.6Q541.83 0.6 539.33-2.7 536.83-6 536.83-13.15L536.83-13.15Q536.83-20.2 539.31-23.55 541.78-26.9 546.78-26.9L546.78-26.9Q551.28-26.9 553.48-23.83 555.68-20.75 555.68-14.1L555.68-14.1 555.68-11.85 541.73-11.85Q541.78-7.55 543.01-5.5 544.23-3.45 546.93-3.45L546.93-3.45Q548.78-3.45 549.91-4.95 551.03-6.45 551.03-9.05L551.03-9.05 555.68-9.05Q555.68-4.55 553.26-1.98 550.83 0.6 546.88 0.6L546.88 0.6ZM541.78-15.75L550.78-15.75Q550.78-19.2 549.78-21.03 548.78-22.85 546.78-22.85L546.78-22.85Q544.38-22.85 543.21-21.1 542.03-19.35 541.78-15.75L541.78-15.75Z" opacity="1" transform="matrix(1,0,0,1,0,0)" fill="#0074d9" class="slogan-text-1" data-fill-palette-color="secondary" id="text-1"></path></svg></g></svg></g></svg></g></svg></g><g transform="matrix(1,0,0,1,0,0.2699071140415157)"><svg viewBox="0 0 107.95120740055219 107.96284561660939" height="107.96284561660939" width="107.95120740055219"><g><svg xmlns="http://www.w3.org/2000/svg" xmlns:xlink="http://www.w3.org/1999/xlink" version="1.1" x="0" y="0" viewBox="13.481874992482561 13.474 73.04512500751743 73.05299999999998" enable-background="new 0 0 100 100" xml:space="preserve" height="107.96284561660939" width="107.95120740055219" class="icon-icon-0" data-fill-palette-color="accent" id="icon-0"><g fill="#0074d9" data-fill-palette-color="accent"><path d="M81.842 18.16c-3.021-3.022-7.038-4.686-11.312-4.686-4.272 0-8.29 1.664-11.312 4.686l-14.75 14.752c-1.562 1.562-1.562 4.095 0 5.657 1.562 1.562 4.096 1.562 5.656 0l14.752-14.752c1.51-1.51 3.518-2.342 5.653-2.342s4.144 0.832 5.654 2.343c1.51 1.51 2.342 3.517 2.342 5.653s-0.832 4.144-2.342 5.654L61.433 49.875c-1.562 1.562-1.562 4.095 0 5.657 0.781 0.781 1.805 1.172 2.828 1.172 1.022 0 2.048-0.391 2.828-1.172L81.841 40.78c3.021-3.021 4.686-7.038 4.686-11.311C86.526 25.196 84.862 21.18 81.842 18.16z" fill="#0074d9" data-fill-palette-color="accent"></path><path d="M49.875 61.433L35.122 76.185c-1.51 1.51-3.517 2.342-5.653 2.342-2.135 0-4.143-0.832-5.654-2.342-3.116-3.117-3.116-8.19 0-11.309l14.752-14.751c1.563-1.562 1.563-4.095 0-5.657-1.56-1.562-4.095-1.562-5.655 0L18.158 59.22c-6.235 6.237-6.235 16.385 0.001 22.621 3.021 3.021 7.038 4.686 11.31 4.686 4.273 0 8.29-1.664 11.311-4.686l14.752-14.752c1.562-1.562 1.562-4.095 0-5.656C53.971 59.87 51.436 59.87 49.875 61.433z" fill="#0074d9" data-fill-palette-color="accent"></path><path d="M35.985 64.016c0.78 0.781 1.805 1.172 2.828 1.172s2.048-0.391 2.828-1.172l22.374-22.374c1.562-1.562 1.562-4.095 0-5.657-1.561-1.562-4.096-1.562-5.656 0L35.985 58.359C34.423 59.921 34.423 62.454 35.985 64.016z" fill="#0074d9" data-fill-palette-color="accent"></path></g></svg></g></svg></g></svg></g><defs></defs></svg><rect width="395.52" height="78.90522199852794" fill="none" stroke="none" visibility="hidden"></rect></g></svg></g></svg>